<?xml version="1.0" encoding="UTF-8" standalone="no"?>
<!-- Generiert durch Microsoft Visio, SVG Export Bakta_final_Calibri.svgz Zeichenblatt-1 -->

<svg
   width="4in"
   height="4in"
   viewBox="0 0 287.99946 288.00032"
   xml:space="preserve"
   color-interpolation-filters="sRGB"
   class="st30"
   version="1.1"
   id="svg48"
   sodipodi:docname="bakta.svg"
   inkscape:version="1.4 (e7c3feb1, 2024-10-09)"
   xmlns:inkscape="http://www.inkscape.org/namespaces/inkscape"
   xmlns:sodipodi="http://sodipodi.sourceforge.net/DTD/sodipodi-0.dtd"
   xmlns="http://www.w3.org/2000/svg"
   xmlns:svg="http://www.w3.org/2000/svg"
   xmlns:v="http://schemas.microsoft.com/visio/2003/SVGExtensions/"><defs
   id="defs48" /><sodipodi:namedview
   id="namedview48"
   pagecolor="#ffffff"
   bordercolor="#000000"
   borderopacity="0.25"
   inkscape:showpageshadow="2"
   inkscape:pageopacity="0.0"
   inkscape:pagecheckerboard="0"
   inkscape:deskcolor="#d1d1d1"
   inkscape:document-units="in"
   inkscape:zoom="1.9437788"
   inkscape:cx="228.42105"
   inkscape:cy="123.72807"
   inkscape:window-width="1720"
   inkscape:window-height="1186"
   inkscape:window-x="80"
   inkscape:window-y="29"
   inkscape:window-maximized="0"
   inkscape:current-layer="svg48" />
	<v:documentProperties
   v:langID="1031"
   v:metric="true"
   v:viewMarkup="false" />

	<style
   type="text/css"
   id="style1">
	<![CDATA[
		.st1 {fill:none;stroke:#000000;stroke-linecap:round;stroke-linejoin:round;stroke-width:2}
		.st2 {stroke:#5e686c;stroke-width:10}
		.st3 {fill:#000000;font-family:Calibri;font-size:6.66666em}
		.st4 {stroke:#5e686c;stroke-width:12}
		.st5 {stroke:#202920;stroke-width:12}
		.st6 {stroke:#a5a5a5;stroke-width:12}
		.st7 {stroke:#8a401d;stroke-width:12}
		.st8 {stroke:#719049;stroke-width:12}
		.st9 {stroke:#232323;stroke-width:12}
		.st10 {stroke:#ecc94d;stroke-width:12}
		.st11 {stroke:#8a401d;stroke-width:10}
		.st12 {stroke:#719049;stroke-width:10}
		.st13 {stroke:#202920;stroke-width:10}
		.st14 {stroke:#a5a5a5;stroke-width:10}
		.st15 {stroke:#8a401d;stroke-width:8}
		.st16 {stroke:#ecc94d;stroke-width:8}
		.st17 {stroke:#07291e;stroke-width:8}
		.st18 {stroke:#232323;stroke-width:8}
		.st19 {stroke:#41262e;stroke-width:12}
		.st20 {stroke:#ecc94d;stroke-width:10}
		.st21 {stroke:#a5a5a5;stroke-width:8}
		.st22 {fill:#719049;stroke:none;stroke-linecap:round;stroke-linejoin:round;stroke-width:0.75}
		.st23 {fill:#5e686c;stroke:none;stroke-linecap:round;stroke-linejoin:round;stroke-width:0.75}
		.st24 {fill:#232323;stroke:none;stroke-linecap:round;stroke-linejoin:round;stroke-width:0.75}
		.st25 {fill:#8a401d;stroke:none;stroke-linecap:round;stroke-linejoin:round;stroke-width:0.75}
		.st26 {fill:#41262e;stroke:none;stroke-linecap:round;stroke-linejoin:round;stroke-width:0.75}
		.st27 {fill:#ecc94d;stroke:none;stroke-linecap:round;stroke-linejoin:round;stroke-width:0.75}
		.st28 {fill:#202920;stroke:none;stroke-linecap:round;stroke-linejoin:round;stroke-width:0.75}
		.st29 {fill:#07291e;stroke:none;stroke-linecap:round;stroke-linejoin:round;stroke-width:0.75}
		.st30 {fill:none;fill-rule:evenodd;font-size:12px;overflow:visible;stroke-linecap:square;stroke-miterlimit:3}
	]]>
	</style>

	<circle
   style="fill:#ffffff;stroke-width:0.750001"
   id="path49"
   cx="144.11334"
   cy="143.72792"
   r="144.00015" /><g
   v:mID="0"
   v:index="1"
   v:groupContext="foregroundPage"
   id="g48"
   transform="translate(1.7733421,1.5713036)">
		<title
   id="title1">Zeichenblatt-1</title>
		<v:pageProperties
   v:drawingScale="0.0393701"
   v:pageScale="0.0393701"
   v:drawingUnits="24"
   v:shadowOffsetX="8.50394"
   v:shadowOffsetY="-8.50394" />
		
		
		
		<g
   id="shape196-8"
   v:mID="196"
   v:groupContext="shape"
   transform="translate(11.7988,-11.9029)">
			<title
   id="title5">Tabelle.196</title>
			<desc
   id="desc5">Bakta</desc>
			<v:textBlock
   v:margins="rect(4,4,4,4)"
   v:tabSpace="42.5197" />
			<v:textRect
   cx="130.394"
   cy="154.434"
   width="260.79"
   height="260.787" />
			<circle
   cx="130.394"
   cy="154.43401"
   class="st1"
   id="ellipse5"
   r="130.394" />
			<text
   x="16.736732"
   y="179.97337"
   class="st3"
   v:langID="1031"
   id="text5"><v:paragraph
   v:horizAlign="1" /><v:tabList />Bakta</text>		</g>
		<g
   id="shape197-11"
   v:mID="197"
   v:groupContext="shape"
   transform="rotate(-174.235,78.511661,145.13133)">
			<title
   id="title6">Tabelle.197</title>
			<path
   d="m 0,283.59 a 22.0775,4.16244 -1.74 0 0 30.83,0"
   class="st4"
   id="path6" />
		</g>
		<g
   id="shape198-14"
   v:mID="198"
   v:groupContext="shape"
   transform="rotate(53.2391,88.743957,279.01649)">
			<title
   id="title7">Tabelle.198</title>
			<path
   d="m 0,284.41 a 16.1205,1.42974 -0.22 0 0 22.78,0"
   class="st4"
   id="path7" />
		</g>
		<g
   id="shape199-17"
   v:mID="199"
   v:groupContext="shape"
   transform="rotate(100.313,84.149439,201.05076)">
			<title
   id="title8">Tabelle.199</title>
			<path
   d="m 0,283.81 a 22.9107,3.48228 -0.39 0 0 32.37,0"
   class="st5"
   id="path8" />
		</g>
		<g
   id="shape200-20"
   v:mID="200"
   v:groupContext="shape"
   transform="rotate(76.2235,79.171008,238.49954)">
			<title
   id="title9">Tabelle.200</title>
			<path
   d="M 0,284.83 H 1.94"
   class="st6"
   id="path9" />
		</g>
		<g
   id="shape201-23"
   v:mID="201"
   v:groupContext="shape"
   transform="rotate(146.729,84.608262,166.09201)">
			<title
   id="title10">Tabelle.201</title>
			<path
   d="m 0,282.45 a 33.7238,8.01856 -2.25 0 0 47.08,0"
   class="st7"
   id="path10" />
		</g>
		<g
   id="shape202-26"
   v:mID="202"
   v:groupContext="shape"
   transform="rotate(167.48,74.072328,156.03696)">
			<title
   id="title11">Tabelle.202</title>
			<path
   d="m 0,284.77 a 6.64842,0.211514 -0.28 0 0 9.28752,0"
   class="st8"
   id="path11" />
		</g>
		<g
   id="shape203-29"
   v:mID="203"
   v:groupContext="shape"
   transform="rotate(-114.017,76.556104,108.3546)">
			<title
   id="title12">Tabelle.203</title>
			<path
   d="m 0,283.46 a 26.3648,4.68187 -0.46 0 0 37.25,0"
   class="st9"
   id="path12" />
		</g>
		<g
   id="shape204-32"
   v:mID="204"
   v:groupContext="shape"
   transform="rotate(-87.6578,74.705929,84.611356)">
			<title
   id="title13">Tabelle.204</title>
			<path
   d="m 0,283.32 a 27.7354,5.13633 -0.48 0 0 39.19,0"
   class="st8"
   id="path13" />
		</g>
		<g
   id="shape205-35"
   v:mID="205"
   v:groupContext="shape"
   transform="rotate(-64.5746,66.189144,43.096257)">
			<title
   id="title14">Tabelle.205</title>
			<path
   d="m 0,284.51 a 12.7625,1.08077 -0.21 0 0 18.03,0"
   class="st7"
   id="path14" />
		</g>
		<g
   id="shape206-38"
   v:mID="206"
   v:groupContext="shape"
   transform="rotate(142.266,119.32645,302.58994)">
			<title
   id="title15">Tabelle.206</title>
			<path
   d="M 0,284.83 H 6.57"
   class="st6"
   id="path15" />
		</g>
		<g
   id="shape207-41"
   v:mID="207"
   v:groupContext="shape"
   transform="rotate(-2.37246,-208.64916,-2751.7508)">
			<title
   id="title16">Tabelle.207</title>
			<path
   d="m 0,283.08 a 31.2589,5.94803 -0.49 0 0 44.16,0"
   class="st10"
   id="path16" />
		</g>
		<g
   id="shape208-44"
   v:mID="208"
   v:groupContext="shape"
   transform="rotate(36.2816,92.561916,354.41218)">
			<title
   id="title17">Tabelle.208</title>
			<path
   d="m 0,284.44 a 10.1761,1.33207 -0.33 0 0 14.38,0"
   class="st8"
   id="path17" />
		</g>
		
		
		
		
		
		
		
		
		<g
   id="shape217-71"
   v:mID="217"
   v:groupContext="shape"
   transform="rotate(-25.7771,48.531803,-149.68829)">
			<title
   id="title26">Tabelle.217</title>
			<path
   d="m 0,284.45 a 8.203,1.29389 -0.4 0 0 11.59,0"
   class="st19"
   id="path26" />
		</g>
		
		
		<g
   id="shape221-80"
   v:mID="221"
   v:groupContext="shape"
   transform="translate(99.109,-261.242)">
			<title
   id="title29">Tabelle.221</title>
			<path
   d="m 2.89,273.21 -2.89,7.46 6.01,4.16 2.98,-1.84 -2.27,-9.67 z"
   class="st22"
   id="path29" />
		</g>
		<g
   id="shape222-82"
   v:mID="222"
   v:groupContext="shape"
   transform="translate(128.571,-266.335)">
			<title
   id="title30">Tabelle.222</title>
			<path
   d="m 4.89,272.92 -4.89,6.21 5.57,5.7 2.92,-1.4 v -9.17 z"
   class="st23"
   id="path30" />
		</g>
		<g
   id="shape223-84"
   v:mID="223"
   v:groupContext="shape"
   transform="translate(263.125,-167.205)">
			<title
   id="title31">Tabelle.223</title>
			<path
   d="m 0.1,281.77 6.96,3.06 4.79,-6.05 -2,-2 -9.85,1.61 z"
   class="st24"
   id="path31" />
		</g>
		<g
   id="shape224-86"
   v:mID="224"
   v:groupContext="shape"
   transform="translate(262.938,-106.124)">
			<title
   id="title32">Tabelle.224</title>
			<path
   d="m 0,278.03 4.48,6.8 7.29,-4.26 -0.24,-2.57 -9.88,-1.73 z"
   class="st22"
   id="path32" />
		</g>
		<g
   id="shape225-88"
   v:mID="225"
   v:groupContext="shape"
   transform="translate(247.636,-68.3464)">
			<title
   id="title33">Tabelle.225</title>
			<path
   d="m 0,277 1.95,7.83 8.26,-1.61 0.94,-3.53 -8.66,-4.26 z"
   class="st25"
   id="path33" />
		</g>
		<g
   id="shape226-90"
   v:mID="226"
   v:groupContext="shape"
   transform="translate(183.179,-15.0837)">
			<title
   id="title34">Tabelle.226</title>
			<path
   d="M 2.96,273.36 0,281.4 l 6.26,3.43 2.87,-1.7 -2.55,-9.36 z"
   class="st26"
   id="path34" />
		</g>
		<g
   id="shape227-92"
   v:mID="227"
   v:groupContext="shape"
   transform="translate(114.138,-7.99103)">
			<title
   id="title35">Tabelle.227</title>
			<path
   d="m 6.29,272.98 -6.29,4.88 4.52,6.97 2.17,-0.82 1.47,-9.37 z"
   class="st27"
   id="path35" />
		</g>
		<g
   id="shape228-94"
   v:mID="228"
   v:groupContext="shape"
   transform="translate(71.6853,-24.9483)">
			<title
   id="title36">Tabelle.228</title>
			<path
   d="m 7.37,274.47 1.4,7.86 -7.17,2.5 -1.6,-2.6 4.25,-7.71 z"
   class="st22"
   id="path36" />
		</g>
		<g
   id="shape229-96"
   v:mID="229"
   v:groupContext="shape"
   transform="translate(23.0205,-74.0849)">
			<title
   id="title37">Tabelle.229</title>
			<path
   d="m 0,283.3 2.6,-8.26 7.66,1.81 0.74,2.93 -8.97,5.05 z"
   class="st23"
   id="path37" />
		</g>
		<g
   id="shape230-98"
   v:mID="230"
   v:groupContext="shape"
   transform="translate(14.0671,-182.859)">
			<title
   id="title38">Tabelle.230</title>
			<path
   d="m 0.03,278.59 7.62,-3.07 3.72,7.21 -2.1,2.1 L 0,281.4 Z"
   class="st28"
   id="path38" />
		</g>
		<g
   id="shape231-100"
   v:mID="231"
   v:groupContext="shape"
   transform="translate(43.7236,-228.152)">
			<title
   id="title39">Tabelle.231</title>
			<path
   d="m 0,276.31 0.34,8.39 8.21,0.13 0.8,-2.99 L 3,275.27 Z"
   class="st25"
   id="path39" />
		</g>
		
		
		
		
		
		
		
		
		
	</g>
</svg>
