<?xml version="1.0" encoding="UTF-8" standalone="no"?>
<svg
   width="427"
   height="128"
   version="1.1"
   id="svg9"
   sodipodi:docname="bakta-title.svg"
   inkscape:version="1.4 (e7c3feb1, 2024-10-09)"
   xmlns:inkscape="http://www.inkscape.org/namespaces/inkscape"
   xmlns:sodipodi="http://sodipodi.sourceforge.net/DTD/sodipodi-0.dtd"
   xmlns="http://www.w3.org/2000/svg"
   xmlns:svg="http://www.w3.org/2000/svg">
  <sodipodi:namedview
     id="namedview9"
     pagecolor="#ffffff"
     bordercolor="#000000"
     borderopacity="0.25"
     inkscape:showpageshadow="2"
     inkscape:pageopacity="0.0"
     inkscape:pagecheckerboard="0"
     inkscape:deskcolor="#d1d1d1"
     inkscape:zoom="2.0960429"
     inkscape:cx="356.86293"
     inkscape:cy="115.21711"
     inkscape:window-width="2104"
     inkscape:window-height="1186"
     inkscape:window-x="63"
     inkscape:window-y="25"
     inkscape:window-maximized="0"
     inkscape:current-layer="g9"
     showguides="true">
    <sodipodi:guide
       position="260.01377,43.555162"
       orientation="0,-1"
       id="guide10"
       inkscape:locked="false" />
  </sodipodi:namedview>
  <defs
     id="defs3">
    <radialGradient
       id="backgroundGradient"
       cx="0"
       cy="0"
       fx="0"
       fy="0"
       r="64"
       gradientUnits="userSpaceOnUse">
      <stop
         offset="0%"
         stop-color="white"
         id="stop1" />
      <stop
         offset="80%"
         stop-color="white"
         id="stop2" />
      <stop
         offset="100%"
         stop-color="#ffffff00"
         id="stop3" />
    </radialGradient>
  </defs>
  <g
     transform="translate(64,64)"
     id="g9">
    <circle
       r="64"
       fill="url(#backgroundGradient)"
       stroke="none"
       stroke-width="3"
       id="circle3"
       cx="0"
       cy="0"
       style="fill:url(#backgroundGradient)" />
    <circle
       r="44"
       fill="none"
       stroke="#000000"
       stroke-width="3"
       id="circle4"
       cx="0"
       cy="0" />
    <path
       class="body"
       fill="#232323"
       d="m 11.227,-52.82 a 54,54 0 0 1 26.957,14.636 L 24.042,-24.042 A 34,34 0 0 0 7.069,-33.257 Z"
       id="path4" />
    <path
       class="body"
       fill="#719049"
       d="M 48.941,-22.821 A 54,54 0 0 1 54,0 H 34 a 34,34 0 0 0 -3.186,-14.369 z"
       id="path5" />
    <path
       class="body"
       fill="#8a401d"
       d="M 48.941,22.821 A 54,54 0 0 1 34.711,41.366 L 21.855,26.046 a 34,34 0 0 0 8.959,-11.677 z"
       id="path6" />
    <path
       class="body"
       fill="#719049"
       d="M -9.377,53.18 A 54,54 0 0 1 -27,46.765 l 10,-17.32 a 34,34 0 0 0 11.096,4.038 z"
       id="path7" />
    <path
       class="body"
       fill="#232323"
       d="M -50.743,18.469 A 54,54 0 0 1 -46.765,-27 l 17.32,10 a 34,34 0 0 0 -2.505,28.629 z"
       id="path8" />
    <path
       class="body"
       fill="#8a401d"
       d="m -27,-46.765 a 54,54 0 0 1 17.623,-6.415 l 3.473,19.697 A 34,34 0 0 0 -17,-29.445 Z"
       id="path9" />
    <text
       font-size="60px"
       font-family="'Trebuchet MS', 'sans-serif;'"
       text-anchor="middle"
       dy="20"
       id="text9">B</text>
    <text
       xml:space="preserve"
       style="font-style:normal;font-variant:normal;font-weight:normal;font-stretch:normal;font-size:72px;font-family:'Trebuchet MS', 'sans-serif;';-inkscape-font-specification:'Trebuchet MS, sans-serif;';text-align:start;writing-mode:lr-tb;direction:ltr;text-anchor:start;fill:#000000"
       x="53.798923"
       y="19.40877"
       id="text10"><tspan
         sodipodi:role="line"
         id="tspan9"
         x="53.798923"
         y="19.40877">akta Web</tspan></text>
  </g>
</svg>
