<?xml version="1.0" encoding="UTF-8" standalone="no"?>
<svg width="128" height="128" xmlns="http://www.w3.org/2000/svg">
   <defs>
      <radialGradient id="backgroundGradient">
         <stop offset="0%" stop-color="white"></stop>
         <stop offset="80%" stop-color="white"></stop>
         <stop offset="100%" stop-color="#ffffff00"></stop>
      </radialGradient>
   </defs>
   <g transform="translate(64,64)">
      <circle r="64" fill="url(#backgroundGradient)" stroke="none" stroke-width="3"></circle>
      <circle r="44" fill="none" stroke="black" stroke-width="3"></circle>
      <path class="body" fill="#232323"
         d="M11.227,-52.82A54,54,0,0,1,38.184,-38.184L24.042,-24.042A34,34,0,0,0,7.069,-33.257Z"></path>
      <path class="body" fill="#719049"
         d="M48.941,-22.821A54,54,0,0,1,54,0L34,0A34,34,0,0,0,30.814,-14.369Z"></path>
      <path class="body" fill="#8a401d"
         d="M48.941,22.821A54,54,0,0,1,34.711,41.366L21.855,26.046A34,34,0,0,0,30.814,14.369Z"></path>
      <path class="body" fill="#719049"
         d="M-9.377,53.18A54,54,0,0,1,-27,46.765L-17,29.445A34,34,0,0,0,-5.904,33.483Z"></path>
      <path class="body" fill="#232323"
         d="M-50.743,18.469A54,54,0,0,1,-46.765,-27L-29.445,-17A34,34,0,0,0,-31.95,11.629Z"></path>
      <path class="body" fill="#8a401d"
         d="M-27,-46.765A54,54,0,0,1,-9.377,-53.18L-5.904,-33.483A34,34,0,0,0,-17,-29.445Z"></path>
      <text font-size="60" font-family="'Trebuchet MS', sans-serif;" text-anchor="middle" dy="20">B</text>
   </g>
</svg>