<?xml version="1.0" encoding="UTF-8" standalone="no"?>
<!-- Generator: Adobe Illustrator 15.1.0, SVG Export Plug-In . SVG Version: 6.00 Build 0)  -->

<svg
   version="1.1"
   id="Ebene_1"
   x="0px"
   y="0px"
   width="595.276"
   height="595.276"
   viewBox="75 36 442 442"
   enable-background="new 0 0 595.276 595.276"
   xml:space="preserve"
   sodipodi:docname="logo-cb.svg"
   inkscape:version="1.4 (e7c3feb1, 2024-10-09)"
   xmlns:inkscape="http://www.inkscape.org/namespaces/inkscape"
   xmlns:sodipodi="http://sodipodi.sourceforge.net/DTD/sodipodi-0.dtd"
   xmlns:xlink="http://www.w3.org/1999/xlink"
   xmlns="http://www.w3.org/2000/svg"
   xmlns:svg="http://www.w3.org/2000/svg"><defs
   id="defs3" /><sodipodi:namedview
   id="namedview3"
   pagecolor="#ffffff"
   bordercolor="#000000"
   borderopacity="0.25"
   inkscape:showpageshadow="2"
   inkscape:pageopacity="0.0"
   inkscape:pagecheckerboard="0"
   inkscape:deskcolor="#d1d1d1"
   inkscape:zoom="1.6950121"
   inkscape:cx="297.93298"
   inkscape:cy="297.638"
   inkscape:window-width="2072"
   inkscape:window-height="1186"
   inkscape:window-x="0"
   inkscape:window-y="25"
   inkscape:window-maximized="0"
   inkscape:current-layer="Ebene_1" />
<line
   fill="none"
   stroke="#6d767a"
   stroke-width="3"
   x1="84.297997"
   y1="365.29001"
   x2="509.495"
   y2="365.29001"
   id="line1" />
<g
   id="g3">
	<defs
   id="defs1">
		<rect
   id="SVGID_1_"
   width="595.276"
   height="595.276"
   x="0"
   y="0" />
	</defs>
	<clipPath
   id="SVGID_2_">
		<use
   xlink:href="#SVGID_1_"
   overflow="visible"
   id="use1" />
	</clipPath>
	<path
   clip-path="url(#SVGID_2_)"
   fill="#6d767a"
   d="m 498.769,409.651 c -0.802,-0.367 -1.468,-0.902 -2,-1.605 -0.531,-0.703 -0.928,-1.564 -1.189,-2.583 -0.263,-1.019 -0.394,-2.179 -0.394,-3.481 0,-1.302 0.131,-2.463 0.394,-3.482 0.262,-1.018 0.658,-1.879 1.189,-2.583 0.532,-0.702 1.198,-1.241 2,-1.616 0.8,-0.374 1.74,-0.562 2.818,-0.562 1.063,0 1.992,0.188 2.786,0.562 0.793,0.375 1.456,0.914 1.986,1.616 0.532,0.704 0.93,1.565 1.191,2.583 0.262,1.02 0.393,2.18 0.393,3.482 0,1.302 -0.131,2.463 -0.393,3.481 -0.262,1.018 -0.659,1.88 -1.191,2.583 -0.53,0.703 -1.193,1.238 -1.986,1.605 -0.794,0.367 -1.724,0.55 -2.786,0.55 -1.078,0 -2.019,-0.183 -2.818,-0.55 m -1.529,-18.193 c -1.295,0.532 -2.396,1.288 -3.302,2.269 -0.906,0.981 -1.602,2.168 -2.088,3.56 -0.487,1.394 -0.729,2.951 -0.729,4.672 0,1.738 0.242,3.303 0.729,4.695 0.486,1.393 1.182,2.579 2.088,3.561 0.906,0.98 2.007,1.736 3.302,2.268 1.296,0.532 2.744,0.798 4.347,0.798 1.602,0 3.047,-0.266 4.335,-0.798 1.288,-0.531 2.381,-1.287 3.28,-2.268 0.897,-0.981 1.59,-2.168 2.076,-3.561 0.487,-1.393 0.73,-2.957 0.73,-4.695 0,-1.721 -0.243,-3.278 -0.73,-4.672 -0.486,-1.392 -1.179,-2.579 -2.076,-3.56 -0.899,-0.98 -1.992,-1.736 -3.28,-2.269 -1.288,-0.531 -2.733,-0.798 -4.335,-0.798 -1.603,0 -3.051,0.266 -4.347,0.798 m -16.088,-8.423 c -0.149,-0.337 -0.355,-0.632 -0.616,-0.887 -0.264,-0.255 -0.563,-0.457 -0.899,-0.607 -0.337,-0.148 -0.693,-0.224 -1.067,-0.224 -0.374,0 -0.726,0.075 -1.055,0.224 -0.33,0.15 -0.618,0.353 -0.865,0.607 -0.247,0.254 -0.445,0.55 -0.595,0.887 -0.15,0.337 -0.225,0.7 -0.225,1.089 0,0.375 0.074,0.73 0.225,1.067 0.149,0.337 0.348,0.629 0.595,0.876 0.247,0.247 0.535,0.446 0.865,0.595 0.329,0.15 0.681,0.226 1.055,0.226 0.374,0 0.73,-0.075 1.067,-0.226 0.337,-0.148 0.636,-0.348 0.899,-0.595 0.261,-0.247 0.467,-0.539 0.616,-0.876 0.15,-0.337 0.226,-0.692 0.226,-1.067 0,-0.389 -0.075,-0.752 -0.226,-1.089 m -4.491,29.929 h 3.952 v -21.968 h -3.952 z m -15.987,-17.295 c 0.958,1.258 1.438,3.22 1.438,5.885 0,2.875 -0.539,5.039 -1.616,6.491 -1.078,1.452 -2.628,2.179 -4.65,2.179 -0.988,0 -1.894,-0.191 -2.718,-0.573 -0.823,-0.382 -1.58,-1.044 -2.269,-1.988 v -10.601 c 0.765,-1.048 1.606,-1.857 2.527,-2.426 0.921,-0.569 1.988,-0.854 3.2,-0.854 1.767,0.001 3.13,0.629 4.088,1.887 m -11.208,17.295 c 0.584,0 0.906,-0.277 0.966,-0.831 l 0.225,-1.954 c 0.748,0.974 1.606,1.732 2.572,2.28 0.965,0.546 2.167,0.819 3.605,0.819 1.437,0 2.731,-0.285 3.885,-0.854 1.153,-0.569 2.134,-1.374 2.943,-2.414 0.808,-1.041 1.429,-2.288 1.863,-3.74 0.434,-1.452 0.651,-3.07 0.651,-4.852 0,-1.678 -0.191,-3.179 -0.572,-4.504 -0.382,-1.324 -0.933,-2.451 -1.65,-3.381 -0.72,-0.928 -1.589,-1.639 -2.606,-2.133 -1.017,-0.494 -2.164,-0.742 -3.436,-0.742 -1.498,0 -2.823,0.312 -3.977,0.934 -1.153,0.621 -2.179,1.463 -3.077,2.525 v -13.094 h -3.953 v 31.939 h 2.561 z m -14.594,-3.493 c -0.15,-0.336 -0.356,-0.632 -0.618,-0.887 -0.262,-0.255 -0.562,-0.456 -0.898,-0.606 -0.336,-0.15 -0.692,-0.225 -1.066,-0.225 -0.374,0 -0.727,0.074 -1.057,0.225 -0.329,0.15 -0.617,0.352 -0.863,0.606 -0.247,0.255 -0.446,0.551 -0.597,0.887 -0.148,0.337 -0.224,0.701 -0.224,1.09 0,0.374 0.075,0.729 0.224,1.067 0.15,0.337 0.35,0.629 0.597,0.876 0.246,0.247 0.534,0.444 0.863,0.595 0.33,0.148 0.683,0.225 1.057,0.225 0.374,0 0.729,-0.076 1.066,-0.225 0.337,-0.15 0.637,-0.348 0.898,-0.595 0.261,-0.247 0.468,-0.539 0.618,-0.876 0.149,-0.338 0.225,-0.693 0.225,-1.067 0,-0.389 -0.076,-0.753 -0.225,-1.09 m -21.108,3.493 h 3.953 v -31.939 h -3.953 z m -23.017,-2.617 c -0.435,-0.127 -0.809,-0.321 -1.123,-0.584 -0.314,-0.261 -0.565,-0.599 -0.752,-1.01 -0.188,-0.412 -0.281,-0.902 -0.281,-1.472 0,-0.599 0.172,-1.142 0.516,-1.629 0.346,-0.486 0.902,-0.91 1.674,-1.269 0.771,-0.359 1.771,-0.647 2.998,-0.865 1.229,-0.217 2.719,-0.363 4.471,-0.438 v 4.537 c -0.435,0.45 -0.872,0.858 -1.314,1.226 -0.442,0.368 -0.91,0.673 -1.404,0.92 -0.493,0.248 -1.018,0.438 -1.571,0.573 -0.555,0.135 -1.161,0.201 -1.819,0.201 -0.496,0.001 -0.961,-0.062 -1.395,-0.19 m 11.364,2.617 v -14.038 c 0,-1.243 -0.168,-2.373 -0.505,-3.393 -0.337,-1.018 -0.828,-1.894 -1.471,-2.627 -0.644,-0.733 -1.445,-1.299 -2.404,-1.695 -0.958,-0.397 -2.051,-0.596 -3.278,-0.596 -1.707,0 -3.262,0.288 -4.66,0.864 -1.401,0.577 -2.707,1.449 -3.92,2.617 l 0.719,1.258 c 0.119,0.21 0.277,0.382 0.472,0.516 0.194,0.136 0.426,0.203 0.696,0.203 0.344,0 0.685,-0.12 1.021,-0.359 0.338,-0.239 0.737,-0.501 1.201,-0.786 0.464,-0.284 1.016,-0.546 1.651,-0.786 0.637,-0.239 1.419,-0.359 2.347,-0.359 1.394,0 2.452,0.431 3.18,1.291 0.726,0.861 1.089,2.146 1.089,3.853 v 1.685 c -2.486,0.061 -4.582,0.288 -6.289,0.686 -1.707,0.396 -3.093,0.908 -4.155,1.538 -1.064,0.629 -1.831,1.344 -2.303,2.145 -0.472,0.802 -0.707,1.636 -0.707,2.505 0,0.988 0.161,1.845 0.482,2.571 0.322,0.727 0.765,1.333 1.325,1.819 0.563,0.487 1.213,0.847 1.954,1.078 0.741,0.232 1.539,0.349 2.392,0.349 0.824,0 1.58,-0.071 2.27,-0.213 0.688,-0.143 1.332,-0.356 1.931,-0.641 0.6,-0.285 1.172,-0.633 1.719,-1.045 0.547,-0.412 1.104,-0.879 1.674,-1.404 l 0.494,2.045 c 0.074,0.375 0.217,0.621 0.427,0.74 0.209,0.121 0.509,0.181 0.897,0.181 h 1.751 z m -41.794,0 v -16.173 c 0.81,-0.942 1.699,-1.68 2.673,-2.212 0.974,-0.53 2.021,-0.797 3.145,-0.797 1.513,0 2.639,0.456 3.381,1.37 0.741,0.913 1.112,2.187 1.112,3.818 v 13.993 h 3.953 V 398.97 c 0,-1.243 -0.158,-2.377 -0.473,-3.403 -0.313,-1.024 -0.778,-1.901 -1.393,-2.628 -0.614,-0.726 -1.374,-1.287 -2.279,-1.684 -0.907,-0.397 -1.958,-0.597 -3.156,-0.597 -1.527,0 -2.875,0.319 -4.043,0.955 -1.168,0.638 -2.224,1.479 -3.167,2.527 l -0.337,-2.336 c -0.029,-0.284 -0.135,-0.49 -0.313,-0.618 -0.181,-0.127 -0.413,-0.191 -0.697,-0.191 h -2.358 v 21.968 h 3.952 z m -27.543,-3.313 c -0.801,-0.367 -1.468,-0.902 -1.999,-1.605 -0.531,-0.703 -0.929,-1.564 -1.189,-2.583 -0.264,-1.019 -0.395,-2.179 -0.395,-3.481 0,-1.302 0.131,-2.463 0.395,-3.482 0.261,-1.018 0.658,-1.879 1.189,-2.583 0.531,-0.702 1.198,-1.241 1.999,-1.616 0.802,-0.374 1.741,-0.562 2.819,-0.562 1.063,0 1.991,0.188 2.785,0.562 0.793,0.375 1.456,0.914 1.988,1.616 0.53,0.704 0.928,1.565 1.189,2.583 0.262,1.02 0.393,2.18 0.393,3.482 0,1.302 -0.131,2.463 -0.393,3.481 -0.262,1.018 -0.659,1.88 -1.189,2.583 -0.532,0.703 -1.195,1.238 -1.988,1.605 -0.794,0.367 -1.723,0.55 -2.785,0.55 -1.077,0 -2.017,-0.183 -2.819,-0.55 m -1.526,-18.193 c -1.296,0.532 -2.396,1.288 -3.303,2.269 -0.905,0.98 -1.603,2.168 -2.089,3.56 -0.486,1.394 -0.729,2.951 -0.729,4.672 0,1.738 0.243,3.303 0.729,4.695 0.486,1.392 1.184,2.579 2.089,3.561 0.906,0.98 2.007,1.736 3.303,2.268 1.295,0.532 2.742,0.798 4.346,0.798 1.602,0 3.047,-0.266 4.335,-0.798 1.287,-0.531 2.381,-1.287 3.279,-2.268 0.898,-0.981 1.591,-2.168 2.078,-3.561 0.485,-1.393 0.729,-2.957 0.729,-4.695 0,-1.721 -0.244,-3.278 -0.729,-4.672 -0.487,-1.392 -1.18,-2.579 -2.078,-3.56 -0.898,-0.981 -1.992,-1.736 -3.279,-2.269 -1.288,-0.531 -2.733,-0.798 -4.335,-0.798 -1.604,0 -3.051,0.266 -4.346,0.798 m -16.088,-8.423 c -0.15,-0.337 -0.356,-0.632 -0.618,-0.887 -0.263,-0.255 -0.562,-0.457 -0.898,-0.607 -0.337,-0.148 -0.692,-0.224 -1.066,-0.224 -0.375,0 -0.728,0.075 -1.057,0.224 -0.329,0.15 -0.618,0.353 -0.865,0.607 -0.247,0.254 -0.444,0.55 -0.595,0.887 -0.149,0.337 -0.224,0.7 -0.224,1.089 0,0.375 0.074,0.73 0.224,1.067 0.15,0.337 0.348,0.629 0.595,0.876 0.247,0.247 0.536,0.446 0.865,0.595 0.329,0.15 0.682,0.226 1.057,0.226 0.374,0 0.729,-0.075 1.066,-0.226 0.337,-0.148 0.636,-0.348 0.898,-0.595 0.262,-0.247 0.468,-0.539 0.618,-0.876 0.148,-0.337 0.224,-0.692 0.224,-1.067 0,-0.389 -0.075,-0.752 -0.224,-1.089 m -4.492,29.929 h 3.953 v -21.968 h -3.953 z m -12.013,-0.18 c 0.914,-0.344 1.707,-0.831 2.382,-1.459 l -1.168,-1.887 c -0.075,-0.135 -0.153,-0.232 -0.236,-0.292 -0.082,-0.06 -0.19,-0.09 -0.325,-0.09 -0.12,0 -0.251,0.053 -0.393,0.157 -0.144,0.104 -0.312,0.225 -0.507,0.359 -0.193,0.134 -0.43,0.254 -0.706,0.359 -0.277,0.104 -0.611,0.157 -1,0.157 -0.659,0 -1.194,-0.225 -1.606,-0.675 -0.412,-0.448 -0.617,-1.123 -0.617,-2.021 v -13.117 h 6.042 V 391.4 h -6.042 v -7.524 h -2.022 c -0.24,0 -0.438,0.067 -0.595,0.201 -0.157,0.136 -0.251,0.315 -0.281,0.539 l -0.921,6.762 -3.459,0.448 v 1.573 c 0,0.284 0.079,0.502 0.236,0.651 0.157,0.149 0.348,0.225 0.573,0.225 h 2.516 v 13.386 c 0,1.813 0.456,3.205 1.37,4.179 0.913,0.974 2.216,1.46 3.908,1.46 0.988,10e-4 1.939,-0.171 2.851,-0.516 m -31.507,-2.437 c -0.434,-0.127 -0.809,-0.321 -1.123,-0.584 -0.314,-0.261 -0.565,-0.599 -0.752,-1.01 -0.188,-0.412 -0.281,-0.902 -0.281,-1.472 0,-0.599 0.172,-1.142 0.516,-1.629 0.345,-0.486 0.902,-0.91 1.674,-1.269 0.771,-0.359 1.77,-0.647 2.998,-0.865 1.228,-0.217 2.718,-0.363 4.47,-0.438 v 4.537 c -0.434,0.45 -0.872,0.858 -1.314,1.226 -0.442,0.367 -0.91,0.673 -1.404,0.92 -0.494,0.248 -1.018,0.438 -1.572,0.573 -0.554,0.135 -1.161,0.201 -1.819,0.201 -0.494,0.001 -0.958,-0.062 -1.393,-0.19 m 11.366,2.617 v -14.038 c 0,-1.243 -0.168,-2.373 -0.505,-3.393 -0.337,-1.018 -0.828,-1.894 -1.471,-2.627 -0.644,-0.733 -1.445,-1.299 -2.404,-1.695 -0.958,-0.397 -2.051,-0.596 -3.279,-0.596 -1.707,0 -3.261,0.288 -4.661,0.864 -1.4,0.577 -2.706,1.449 -3.919,2.617 l 0.719,1.258 c 0.119,0.21 0.277,0.382 0.471,0.516 0.195,0.136 0.427,0.203 0.697,0.203 0.344,0 0.685,-0.12 1.022,-0.359 0.337,-0.239 0.737,-0.501 1.201,-0.786 0.464,-0.284 1.015,-0.546 1.651,-0.786 0.637,-0.239 1.419,-0.359 2.347,-0.359 1.393,0 2.452,0.431 3.179,1.291 0.726,0.861 1.089,2.146 1.089,3.853 v 1.685 c -2.486,0.061 -4.582,0.288 -6.289,0.686 -1.707,0.396 -3.092,0.908 -4.155,1.538 -1.064,0.629 -1.831,1.344 -2.303,2.145 -0.471,0.802 -0.707,1.636 -0.707,2.505 0,0.988 0.161,1.845 0.483,2.571 0.322,0.726 0.763,1.333 1.325,1.819 0.562,0.487 1.213,0.847 1.954,1.078 0.741,0.232 1.539,0.349 2.392,0.349 0.824,0 1.58,-0.071 2.269,-0.213 0.688,-0.143 1.332,-0.356 1.931,-0.641 0.599,-0.285 1.172,-0.633 1.719,-1.045 0.546,-0.412 1.104,-0.879 1.673,-1.404 l 0.494,2.045 c 0.075,0.375 0.217,0.621 0.427,0.74 0.209,0.121 0.509,0.181 0.898,0.181 h 1.752 z m -27.352,-0.18 c 0.913,-0.344 1.707,-0.831 2.381,-1.459 l -1.168,-1.887 c -0.075,-0.135 -0.154,-0.232 -0.236,-0.292 -0.082,-0.06 -0.191,-0.09 -0.325,-0.09 -0.12,0 -0.251,0.053 -0.393,0.157 -0.143,0.104 -0.311,0.225 -0.506,0.359 -0.195,0.134 -0.43,0.254 -0.707,0.359 -0.278,0.104 -0.611,0.157 -1,0.157 -0.659,0 -1.194,-0.225 -1.606,-0.675 -0.412,-0.448 -0.617,-1.123 -0.617,-2.021 v -13.117 h 6.042 V 391.4 h -6.042 v -7.524 h -2.022 c -0.24,0 -0.438,0.067 -0.595,0.201 -0.157,0.136 -0.251,0.315 -0.281,0.539 l -0.921,6.762 -3.459,0.448 v 1.573 c 0,0.284 0.079,0.502 0.236,0.651 0.157,0.149 0.348,0.225 0.573,0.225 h 2.515 v 13.386 c 0,1.813 0.457,3.205 1.371,4.179 0.913,0.974 2.215,1.46 3.908,1.46 0.988,10e-4 1.939,-0.171 2.852,-0.516 m -39.099,-21.787 v 13.994 c 0,1.243 0.157,2.377 0.472,3.402 0.314,1.026 0.778,1.902 1.392,2.628 0.614,0.727 1.374,1.288 2.28,1.685 0.906,0.396 1.958,0.596 3.156,0.596 1.527,0 2.871,-0.318 4.032,-0.955 1.16,-0.636 2.212,-1.479 3.155,-2.526 l 0.36,2.336 c 0.03,0.284 0.135,0.49 0.314,0.617 0.18,0.128 0.405,0.191 0.674,0.191 h 2.381 v -21.968 h -3.953 v 16.195 c -0.824,0.928 -1.718,1.658 -2.684,2.19 -0.966,0.53 -2.01,0.797 -3.134,0.797 -1.512,0 -2.639,-0.453 -3.38,-1.359 -0.741,-0.906 -1.112,-2.182 -1.112,-3.829 v -13.994 z m -17.233,3.235 c 0.681,0.299 1.258,0.775 1.729,1.426 0.472,0.651 0.831,1.486 1.078,2.504 0.247,1.02 0.371,2.239 0.371,3.662 0,2.695 -0.543,4.77 -1.628,6.222 -1.086,1.452 -2.632,2.179 -4.639,2.179 -1.018,0 -1.942,-0.191 -2.774,-0.573 -0.831,-0.382 -1.591,-1.044 -2.279,-1.988 v -10.601 c 0.778,-1.048 1.635,-1.857 2.571,-2.426 0.936,-0.569 2.018,-0.854 3.246,-0.854 0.868,0 1.642,0.149 2.325,0.449 m -8.142,26.144 v -9.658 c 0.733,0.809 1.572,1.438 2.515,1.887 0.944,0.449 2.081,0.674 3.414,0.674 1.468,0 2.786,-0.292 3.954,-0.876 1.167,-0.584 2.159,-1.389 2.976,-2.415 0.816,-1.024 1.441,-2.237 1.875,-3.639 0.434,-1.4 0.651,-2.908 0.651,-4.525 0,-1.827 -0.194,-3.437 -0.584,-4.83 -0.389,-1.392 -0.943,-2.56 -1.662,-3.503 -0.718,-0.943 -1.587,-1.659 -2.605,-2.145 -1.019,-0.487 -2.156,-0.73 -3.414,-0.73 -1.558,0 -2.935,0.345 -4.133,1.033 -1.198,0.689 -2.261,1.594 -3.189,2.718 l -0.382,-2.561 c -0.03,-0.284 -0.135,-0.49 -0.315,-0.618 -0.179,-0.127 -0.412,-0.191 -0.696,-0.191 h -2.358 v 29.38 h 3.953 z m -42.132,-7.412 v -16.352 c 0.689,-0.884 1.453,-1.576 2.291,-2.078 0.839,-0.502 1.737,-0.752 2.696,-0.752 1.407,0 2.474,0.427 3.2,1.28 0.727,0.853 1.09,2.156 1.09,3.908 v 13.993 h 3.953 V 398.97 c 0,-0.854 0.131,-1.603 0.393,-2.246 0.262,-0.645 0.614,-1.188 1.056,-1.629 0.441,-0.441 0.954,-0.771 1.538,-0.988 0.584,-0.217 1.205,-0.325 1.864,-0.325 1.453,0 2.568,0.438 3.347,1.313 0.779,0.876 1.168,2.168 1.168,3.875 v 13.993 h 3.953 V 398.97 c 0,-2.665 -0.655,-4.717 -1.965,-6.154 -1.311,-1.438 -3.164,-2.157 -5.559,-2.157 -0.749,0 -1.483,0.087 -2.201,0.26 -0.719,0.172 -1.393,0.444 -2.022,0.819 -0.629,0.374 -1.202,0.847 -1.718,1.415 -0.517,0.569 -0.932,1.257 -1.247,2.066 -0.404,-1.394 -1.082,-2.501 -2.032,-3.324 -0.952,-0.824 -2.183,-1.236 -3.695,-1.236 -0.674,0 -1.311,0.083 -1.909,0.248 -0.6,0.164 -1.161,0.4 -1.685,0.707 -0.524,0.308 -1.015,0.667 -1.471,1.078 -0.457,0.412 -0.895,0.865 -1.314,1.359 l -0.337,-2.246 c -0.03,-0.284 -0.131,-0.49 -0.303,-0.618 -0.173,-0.127 -0.408,-0.191 -0.708,-0.191 h -2.336 v 21.968 z m -27.701,-3.313 c -0.801,-0.367 -1.467,-0.902 -1.999,-1.605 -0.532,-0.703 -0.928,-1.564 -1.19,-2.583 -0.262,-1.019 -0.393,-2.179 -0.393,-3.481 0,-1.302 0.131,-2.463 0.393,-3.482 0.262,-1.018 0.658,-1.879 1.19,-2.583 0.532,-0.702 1.198,-1.241 1.999,-1.616 0.801,-0.374 1.741,-0.562 2.819,-0.562 1.063,0 1.991,0.188 2.785,0.562 0.794,0.375 1.456,0.914 1.988,1.616 0.531,0.704 0.928,1.565 1.19,2.583 0.262,1.02 0.393,2.18 0.393,3.482 0,1.302 -0.131,2.463 -0.393,3.481 -0.262,1.018 -0.659,1.88 -1.19,2.583 -0.532,0.703 -1.194,1.238 -1.988,1.605 -0.794,0.367 -1.722,0.55 -2.785,0.55 -1.077,0 -2.017,-0.183 -2.819,-0.55 m -1.526,-18.193 c -1.296,0.532 -2.396,1.288 -3.302,2.269 -0.906,0.98 -1.602,2.168 -2.089,3.56 -0.487,1.394 -0.73,2.951 -0.73,4.672 0,1.738 0.243,3.303 0.73,4.695 0.487,1.393 1.183,2.579 2.089,3.561 0.906,0.98 2.006,1.736 3.302,2.268 1.295,0.532 2.744,0.798 4.346,0.798 1.602,0 3.047,-0.266 4.335,-0.798 1.288,-0.531 2.381,-1.287 3.279,-2.268 0.899,-0.981 1.591,-2.168 2.078,-3.561 0.486,-1.393 0.73,-2.957 0.73,-4.695 0,-1.721 -0.244,-3.278 -0.73,-4.672 -0.487,-1.392 -1.179,-2.579 -2.078,-3.56 -0.898,-0.98 -1.991,-1.736 -3.279,-2.269 -1.288,-0.531 -2.733,-0.798 -4.335,-0.798 -1.602,0 -3.051,0.266 -4.346,0.798 m -14.089,2.055 c -0.869,-0.898 -1.864,-1.599 -2.987,-2.101 -1.123,-0.502 -2.434,-0.753 -3.931,-0.753 -1.587,0 -2.991,0.281 -4.211,0.844 -1.221,0.561 -2.246,1.344 -3.078,2.347 -0.831,1.003 -1.463,2.198 -1.897,3.582 -0.435,1.386 -0.652,2.894 -0.652,4.525 0,1.798 0.236,3.396 0.708,4.797 0.471,1.399 1.123,2.583 1.954,3.549 0.831,0.965 1.808,1.703 2.931,2.212 1.123,0.509 2.328,0.764 3.616,0.764 0.749,0 1.486,-0.067 2.213,-0.203 0.726,-0.134 1.426,-0.34 2.1,-0.616 0.673,-0.277 1.302,-0.63 1.886,-1.057 0.584,-0.427 1.116,-0.932 1.595,-1.516 l -1.145,-1.438 c -0.18,-0.255 -0.42,-0.382 -0.719,-0.382 -0.27,0 -0.528,0.112 -0.775,0.337 -0.247,0.225 -0.558,0.472 -0.932,0.741 -0.375,0.269 -0.839,0.516 -1.393,0.741 -0.554,0.225 -1.265,0.337 -2.134,0.337 -0.898,0 -1.707,-0.184 -2.425,-0.55 -0.719,-0.367 -1.333,-0.902 -1.842,-1.606 -0.509,-0.704 -0.902,-1.569 -1.179,-2.595 -0.278,-1.025 -0.416,-2.197 -0.416,-3.516 0,-1.271 0.131,-2.418 0.393,-3.436 0.262,-1.018 0.644,-1.883 1.146,-2.594 0.501,-0.711 1.13,-1.258 1.886,-1.641 0.756,-0.382 1.629,-0.572 2.617,-0.572 0.749,0 1.381,0.09 1.898,0.27 0.517,0.179 0.955,0.378 1.314,0.595 0.359,0.218 0.659,0.415 0.898,0.596 0.24,0.18 0.472,0.27 0.697,0.27 0.209,0 0.37,-0.041 0.483,-0.124 0.112,-0.082 0.228,-0.206 0.348,-0.37 z"
   id="path1" />
	<path
   clip-path="url(#SVGID_2_)"
   fill="#6d767a"
   d="m 241.122,200.828 c -1.906,3.552 -3.501,7.308 -4.625,11.373 -1.307,4.728 -1.96,9.65 -1.96,14.766 0,5.117 0.653,10.024 1.96,14.723 1.124,4.043 2.719,7.8 4.625,11.368 z m 102.943,26.139 c 0,-7.73 -1.432,-14.918 -4.296,-21.564 -2.865,-6.645 -6.757,-12.43 -11.679,-17.351 -4.921,-4.922 -10.706,-8.787 -17.352,-11.596 -6.646,-2.807 -13.75,-4.212 -21.313,-4.212 -5.117,0 -10.025,0.64 -14.724,1.918 -4.7,1.28 -9.079,3.087 -13.138,5.423 -1.428,0.821 -2.751,1.779 -4.086,2.721 h 23.288 c 3.52,0 6.84,0.67 9.96,2.01 3.12,1.341 5.85,3.18 8.19,5.52 2.34,2.34 4.189,5.08 5.55,8.22 1.359,3.141 2.04,6.51 2.04,10.11 0,3 -0.471,5.79 -1.41,8.37 -0.94,2.58 -2.271,4.89 -3.99,6.93 2.88,2.64 5.16,5.781 6.84,9.42 1.681,3.64 2.521,7.5 2.521,11.58 0,3.64 -0.7,7.09 -2.101,10.35 -1.399,3.261 -3.29,6.12 -5.67,8.58 -2.38,2.46 -5.16,4.41 -8.34,5.85 -3.18,1.44 -6.53,2.16 -10.05,2.16 H 257.12 c 1.443,1.043 2.891,2.08 4.445,2.984 4.059,2.365 8.438,4.186 13.138,5.464 4.699,1.279 9.607,1.919 14.724,1.919 5.06,0 9.912,-0.64 14.556,-1.919 4.644,-1.278 8.995,-3.099 13.055,-5.464 4.06,-2.363 7.744,-5.199 11.054,-8.508 3.308,-3.309 6.145,-6.993 8.509,-11.053 2.363,-4.059 4.198,-8.439 5.506,-13.139 1.304,-4.699 1.958,-9.606 1.958,-14.723 m -82.558,-9.561 h 12.695 c 1.363,0 2.617,-0.21 3.76,-0.63 1.143,-0.42 2.115,-1.02 2.918,-1.8 0.802,-0.78 1.434,-1.7 1.896,-2.76 0.461,-1.059 0.691,-2.229 0.691,-3.51 0,-1.2 -0.221,-2.319 -0.661,-3.36 -0.442,-1.04 -1.064,-1.959 -1.866,-2.76 -0.803,-0.8 -1.764,-1.43 -2.888,-1.89 -1.123,-0.459 -2.346,-0.69 -3.669,-0.69 h -12.876 z m 15.878,16.14 h -15.878 v 20.04 h 15.878 c 1.323,0 2.545,-0.279 3.668,-0.84 1.123,-0.56 2.106,-1.31 2.948,-2.25 0.842,-0.939 1.493,-2.01 1.955,-3.21 0.461,-1.2 0.691,-2.439 0.691,-3.72 0,-1.2 -0.23,-2.4 -0.691,-3.6 -0.462,-1.2 -1.104,-2.27 -1.925,-3.21 -0.822,-0.939 -1.805,-1.71 -2.948,-2.31 -1.143,-0.6 -2.375,-0.9 -3.698,-0.9"
   id="path2" />
	<path
   clip-path="url(#SVGID_2_)"
   fill="#0069b4"
   d="m 216.167,286.697 c -6.615,3.147 -14.455,4.72 -23.52,4.72 -8.32,0 -16.16,-1.68 -23.52,-5.04 -7.36,-3.36 -13.787,-7.92 -19.28,-13.68 -5.495,-5.76 -9.84,-12.533 -13.04,-20.32 -3.2,-7.785 -4.8,-16.105 -4.8,-24.96 0,-8.64 1.6,-16.88 4.8,-24.72 3.2,-7.84 7.572,-14.72 13.12,-20.64 5.545,-5.92 11.972,-10.613 19.28,-14.08 7.305,-3.465 15.12,-5.2 23.44,-5.2 7.68,0 15.145,1.44 22.4,4.32 7.252,2.88 13.6,6.615 19.04,11.2 2.24,1.815 4.265,2.72 6.08,2.72 2.56,0 4.905,-1.6 7.04,-4.8 l 13.12,-20 c 0.532,-0.745 1.167,-1.823 1.507,-2.957 0.284,-1.021 0.268,-0.965 0.227,-1.758 -0.113,-2.211 -1.508,-4.322 -2.948,-5.442 -1.587,-1.361 -1.701,-1.531 -3.855,-3.175 l -0.371,-0.268 c -8.215,-6.185 -17.6,-11.092 -28.16,-14.72 -10.56,-3.625 -21.76,-5.44 -33.6,-5.44 -9.495,0 -18.695,1.255 -27.6,3.76 -8.908,2.508 -17.228,6.027 -24.96,10.56 -7.735,4.535 -14.8,9.975 -21.2,16.32 -6.4,6.347 -11.92,13.415 -16.56,21.2 -4.64,7.788 -8.215,16.16 -10.72,25.12 -2.507,8.96 -3.76,18.295 -3.76,28 0,9.707 1.253,19.04 3.76,28 2.505,8.96 6.08,17.335 10.72,25.12 4.64,7.788 10.16,14.855 16.56,21.2 6.4,6.349 13.465,11.788 21.2,16.32 7.732,4.535 16.052,8.055 24.96,10.56 8.905,2.505 18.105,3.761 27.6,3.761 12.585,0 24.132,-2.028 34.64,-6.08 10.505,-4.054 20.292,-9.386 29.36,-16 1.92,-1.386 3.465,-2.745 4.64,-4.08 1.173,-1.332 1.76,-2.854 1.76,-4.561 0,-0.64 -0.16,-1.359 -0.48,-2.16 -0.32,-0.8 -0.748,-1.572 -1.28,-2.319 l -11.412,-16.263 -3.401,-5.159 c -1.28,-1.813 -3.517,-3.294 -5.329,-3.402 -0.855,0 -1.588,0 -2.921,0.416 -1.331,0.491 -2.645,1.475 -4.457,2.648 -5.439,4.374 -11.467,8.134 -18.08,11.279"
   id="path3" />
</g>
</svg>
