<?xml version="1.0" encoding="utf-8"?>
<!-- Generator: Adobe Illustrator 15.1.0, SVG Export Plug-In . SVG Version: 6.00 Build 0)  -->
<!DOCTYPE svg PUBLIC "-//W3C//DTD SVG 1.1//EN" "http://www.w3.org/Graphics/SVG/1.1/DTD/svg11.dtd">
<svg version="1.1" id="Ebene_1" xmlns="http://www.w3.org/2000/svg" xmlns:xlink="http://www.w3.org/1999/xlink" x="0px" y="0px"
	 width="595.276px" height="595.276px" viewBox="0 0 595.276 595.276" enable-background="new 0 0 595.276 595.276"
	 xml:space="preserve">
<line fill="none" stroke="#6D767A" stroke-width="3" x1="84.298" y1="365.29" x2="509.495" y2="365.29"/>
<g>
	<defs>
		<rect id="SVGID_1_" width="595.276" height="595.276"/>
	</defs>
	<clipPath id="SVGID_2_">
		<use xlink:href="#SVGID_1_"  overflow="visible"/>
	</clipPath>
	<path clip-path="url(#SVGID_2_)" fill="#6D767A" d="M498.769,409.651c-0.802-0.367-1.468-0.902-2-1.605
		c-0.531-0.703-0.928-1.564-1.189-2.583c-0.263-1.019-0.394-2.179-0.394-3.481s0.131-2.463,0.394-3.482
		c0.262-1.018,0.658-1.879,1.189-2.583c0.532-0.702,1.198-1.241,2-1.616c0.8-0.374,1.74-0.562,2.818-0.562
		c1.063,0,1.992,0.188,2.786,0.562c0.793,0.375,1.456,0.914,1.986,1.616c0.532,0.704,0.93,1.565,1.191,2.583
		c0.262,1.02,0.393,2.18,0.393,3.482s-0.131,2.463-0.393,3.481s-0.659,1.88-1.191,2.583c-0.53,0.703-1.193,1.238-1.986,1.605
		c-0.794,0.367-1.724,0.55-2.786,0.55C500.509,410.201,499.568,410.018,498.769,409.651 M497.24,391.458
		c-1.295,0.532-2.396,1.288-3.302,2.269s-1.602,2.168-2.088,3.56c-0.487,1.394-0.729,2.951-0.729,4.672
		c0,1.738,0.242,3.303,0.729,4.695c0.486,1.393,1.182,2.579,2.088,3.561c0.906,0.98,2.007,1.736,3.302,2.268
		c1.296,0.532,2.744,0.798,4.347,0.798c1.602,0,3.047-0.266,4.335-0.798c1.288-0.531,2.381-1.287,3.28-2.268
		c0.897-0.981,1.59-2.168,2.076-3.561c0.487-1.393,0.73-2.957,0.73-4.695c0-1.721-0.243-3.278-0.73-4.672
		c-0.486-1.392-1.179-2.579-2.076-3.56c-0.899-0.98-1.992-1.736-3.28-2.269c-1.288-0.531-2.733-0.798-4.335-0.798
		C499.984,390.66,498.536,390.926,497.24,391.458 M481.152,383.035c-0.149-0.337-0.355-0.632-0.616-0.887
		c-0.264-0.255-0.563-0.457-0.899-0.607c-0.337-0.148-0.693-0.224-1.067-0.224s-0.726,0.075-1.055,0.224
		c-0.33,0.15-0.618,0.353-0.865,0.607s-0.445,0.55-0.595,0.887c-0.15,0.337-0.225,0.7-0.225,1.089c0,0.375,0.074,0.73,0.225,1.067
		c0.149,0.337,0.348,0.629,0.595,0.876s0.535,0.446,0.865,0.595c0.329,0.15,0.681,0.226,1.055,0.226s0.73-0.075,1.067-0.226
		c0.337-0.148,0.636-0.348,0.899-0.595c0.261-0.247,0.467-0.539,0.616-0.876c0.15-0.337,0.226-0.692,0.226-1.067
		C481.378,383.735,481.303,383.372,481.152,383.035 M476.661,412.964h3.952v-21.968h-3.952V412.964z M460.674,395.669
		c0.958,1.258,1.438,3.22,1.438,5.885c0,2.875-0.539,5.039-1.616,6.491c-1.078,1.452-2.628,2.179-4.65,2.179
		c-0.988,0-1.894-0.191-2.718-0.573c-0.823-0.382-1.58-1.044-2.269-1.988v-10.601c0.765-1.048,1.606-1.857,2.527-2.426
		c0.921-0.569,1.988-0.854,3.2-0.854C458.353,393.783,459.716,394.411,460.674,395.669 M449.466,412.964
		c0.584,0,0.906-0.277,0.966-0.831l0.225-1.954c0.748,0.974,1.606,1.732,2.572,2.28c0.965,0.546,2.167,0.819,3.605,0.819
		c1.437,0,2.731-0.285,3.885-0.854c1.153-0.569,2.134-1.374,2.943-2.414c0.808-1.041,1.429-2.288,1.863-3.74s0.651-3.07,0.651-4.852
		c0-1.678-0.191-3.179-0.572-4.504c-0.382-1.324-0.933-2.451-1.65-3.381c-0.72-0.928-1.589-1.639-2.606-2.133
		s-2.164-0.742-3.436-0.742c-1.498,0-2.823,0.312-3.977,0.934c-1.153,0.621-2.179,1.463-3.077,2.525v-13.094h-3.953v31.939H449.466z
		 M434.872,409.471c-0.15-0.336-0.356-0.632-0.618-0.887s-0.562-0.456-0.898-0.606s-0.692-0.225-1.066-0.225
		s-0.727,0.074-1.057,0.225c-0.329,0.15-0.617,0.352-0.863,0.606c-0.247,0.255-0.446,0.551-0.597,0.887
		c-0.148,0.337-0.224,0.701-0.224,1.09c0,0.374,0.075,0.729,0.224,1.067c0.15,0.337,0.35,0.629,0.597,0.876
		c0.246,0.247,0.534,0.444,0.863,0.595c0.33,0.148,0.683,0.225,1.057,0.225s0.729-0.076,1.066-0.225
		c0.337-0.15,0.637-0.348,0.898-0.595s0.468-0.539,0.618-0.876c0.149-0.338,0.225-0.693,0.225-1.067
		C435.097,410.172,435.021,409.808,434.872,409.471 M413.764,412.964h3.953v-31.939h-3.953V412.964z M390.747,410.347
		c-0.435-0.127-0.809-0.321-1.123-0.584c-0.314-0.261-0.565-0.599-0.752-1.01c-0.188-0.412-0.281-0.902-0.281-1.472
		c0-0.599,0.172-1.142,0.516-1.629c0.346-0.486,0.902-0.91,1.674-1.269c0.771-0.359,1.771-0.647,2.998-0.865
		c1.229-0.217,2.719-0.363,4.471-0.438v4.537c-0.435,0.45-0.872,0.858-1.314,1.226s-0.91,0.673-1.404,0.92
		c-0.493,0.248-1.018,0.438-1.571,0.573c-0.555,0.135-1.161,0.201-1.819,0.201C391.646,410.538,391.181,410.475,390.747,410.347
		 M402.111,412.964v-14.038c0-1.243-0.168-2.373-0.505-3.393c-0.337-1.018-0.828-1.894-1.471-2.627
		c-0.644-0.733-1.445-1.299-2.404-1.695c-0.958-0.397-2.051-0.596-3.278-0.596c-1.707,0-3.262,0.288-4.66,0.864
		c-1.401,0.577-2.707,1.449-3.92,2.617l0.719,1.258c0.119,0.21,0.277,0.382,0.472,0.516c0.194,0.136,0.426,0.203,0.696,0.203
		c0.344,0,0.685-0.12,1.021-0.359c0.338-0.239,0.737-0.501,1.201-0.786c0.464-0.284,1.016-0.546,1.651-0.786
		c0.637-0.239,1.419-0.359,2.347-0.359c1.394,0,2.452,0.431,3.18,1.291c0.726,0.861,1.089,2.146,1.089,3.853v1.685
		c-2.486,0.061-4.582,0.288-6.289,0.686c-1.707,0.396-3.093,0.908-4.155,1.538c-1.064,0.629-1.831,1.344-2.303,2.145
		c-0.472,0.802-0.707,1.636-0.707,2.505c0,0.988,0.161,1.845,0.482,2.571c0.322,0.727,0.765,1.333,1.325,1.819
		c0.563,0.487,1.213,0.847,1.954,1.078c0.741,0.232,1.539,0.349,2.392,0.349c0.824,0,1.58-0.071,2.27-0.213
		c0.688-0.143,1.332-0.356,1.931-0.641c0.6-0.285,1.172-0.633,1.719-1.045s1.104-0.879,1.674-1.404l0.494,2.045
		c0.074,0.375,0.217,0.621,0.427,0.74c0.209,0.121,0.509,0.181,0.897,0.181H402.111z M360.317,412.964v-16.173
		c0.81-0.942,1.699-1.68,2.673-2.212c0.974-0.53,2.021-0.797,3.145-0.797c1.513,0,2.639,0.456,3.381,1.37
		c0.741,0.913,1.112,2.187,1.112,3.818v13.993h3.953v-13.993c0-1.243-0.158-2.377-0.473-3.403c-0.313-1.024-0.778-1.901-1.393-2.628
		c-0.614-0.726-1.374-1.287-2.279-1.684c-0.907-0.397-1.958-0.597-3.156-0.597c-1.527,0-2.875,0.319-4.043,0.955
		c-1.168,0.638-2.224,1.479-3.167,2.527l-0.337-2.336c-0.029-0.284-0.135-0.49-0.313-0.618c-0.181-0.127-0.413-0.191-0.697-0.191
		h-2.358v21.968H360.317z M332.774,409.651c-0.801-0.367-1.468-0.902-1.999-1.605s-0.929-1.564-1.189-2.583
		c-0.264-1.019-0.395-2.179-0.395-3.481s0.131-2.463,0.395-3.482c0.261-1.018,0.658-1.879,1.189-2.583
		c0.531-0.702,1.198-1.241,1.999-1.616c0.802-0.374,1.741-0.562,2.819-0.562c1.063,0,1.991,0.188,2.785,0.562
		c0.793,0.375,1.456,0.914,1.988,1.616c0.53,0.704,0.928,1.565,1.189,2.583c0.262,1.02,0.393,2.18,0.393,3.482
		s-0.131,2.463-0.393,3.481s-0.659,1.88-1.189,2.583c-0.532,0.703-1.195,1.238-1.988,1.605c-0.794,0.367-1.723,0.55-2.785,0.55
		C334.516,410.201,333.576,410.018,332.774,409.651 M331.248,391.458c-1.296,0.532-2.396,1.288-3.303,2.269
		c-0.905,0.98-1.603,2.168-2.089,3.56c-0.486,1.394-0.729,2.951-0.729,4.672c0,1.738,0.243,3.303,0.729,4.695
		s1.184,2.579,2.089,3.561c0.906,0.98,2.007,1.736,3.303,2.268c1.295,0.532,2.742,0.798,4.346,0.798
		c1.602,0,3.047-0.266,4.335-0.798c1.287-0.531,2.381-1.287,3.279-2.268c0.898-0.981,1.591-2.168,2.078-3.561
		c0.485-1.393,0.729-2.957,0.729-4.695c0-1.721-0.244-3.278-0.729-4.672c-0.487-1.392-1.18-2.579-2.078-3.56
		s-1.992-1.736-3.279-2.269c-1.288-0.531-2.733-0.798-4.335-0.798C333.99,390.66,332.543,390.926,331.248,391.458 M315.16,383.035
		c-0.15-0.337-0.356-0.632-0.618-0.887c-0.263-0.255-0.562-0.457-0.898-0.607c-0.337-0.148-0.692-0.224-1.066-0.224
		c-0.375,0-0.728,0.075-1.057,0.224c-0.329,0.15-0.618,0.353-0.865,0.607s-0.444,0.55-0.595,0.887
		c-0.149,0.337-0.224,0.7-0.224,1.089c0,0.375,0.074,0.73,0.224,1.067c0.15,0.337,0.348,0.629,0.595,0.876s0.536,0.446,0.865,0.595
		c0.329,0.15,0.682,0.226,1.057,0.226c0.374,0,0.729-0.075,1.066-0.226c0.337-0.148,0.636-0.348,0.898-0.595
		c0.262-0.247,0.468-0.539,0.618-0.876c0.148-0.337,0.224-0.692,0.224-1.067C315.384,383.735,315.309,383.372,315.16,383.035
		 M310.668,412.964h3.953v-21.968h-3.953V412.964z M298.655,412.784c0.914-0.344,1.707-0.831,2.382-1.459l-1.168-1.887
		c-0.075-0.135-0.153-0.232-0.236-0.292c-0.082-0.06-0.19-0.09-0.325-0.09c-0.12,0-0.251,0.053-0.393,0.157
		c-0.144,0.104-0.312,0.225-0.507,0.359c-0.193,0.134-0.43,0.254-0.706,0.359c-0.277,0.104-0.611,0.157-1,0.157
		c-0.659,0-1.194-0.225-1.606-0.675c-0.412-0.448-0.617-1.123-0.617-2.021v-13.117h6.042v-2.875h-6.042v-7.524h-2.022
		c-0.24,0-0.438,0.067-0.595,0.201c-0.157,0.136-0.251,0.315-0.281,0.539l-0.921,6.762l-3.459,0.448v1.573
		c0,0.284,0.079,0.502,0.236,0.651c0.157,0.149,0.348,0.225,0.573,0.225h2.516v13.386c0,1.813,0.456,3.205,1.37,4.179
		c0.913,0.974,2.216,1.46,3.908,1.46C296.792,413.301,297.743,413.129,298.655,412.784 M267.148,410.347
		c-0.434-0.127-0.809-0.321-1.123-0.584c-0.314-0.261-0.565-0.599-0.752-1.01c-0.188-0.412-0.281-0.902-0.281-1.472
		c0-0.599,0.172-1.142,0.516-1.629c0.345-0.486,0.902-0.91,1.674-1.269c0.771-0.359,1.77-0.647,2.998-0.865
		c1.228-0.217,2.718-0.363,4.47-0.438v4.537c-0.434,0.45-0.872,0.858-1.314,1.226c-0.442,0.367-0.91,0.673-1.404,0.92
		c-0.494,0.248-1.018,0.438-1.572,0.573c-0.554,0.135-1.161,0.201-1.819,0.201C268.047,410.538,267.583,410.475,267.148,410.347
		 M278.514,412.964v-14.038c0-1.243-0.168-2.373-0.505-3.393c-0.337-1.018-0.828-1.894-1.471-2.627
		c-0.644-0.733-1.445-1.299-2.404-1.695c-0.958-0.397-2.051-0.596-3.279-0.596c-1.707,0-3.261,0.288-4.661,0.864
		c-1.4,0.577-2.706,1.449-3.919,2.617l0.719,1.258c0.119,0.21,0.277,0.382,0.471,0.516c0.195,0.136,0.427,0.203,0.697,0.203
		c0.344,0,0.685-0.12,1.022-0.359s0.737-0.501,1.201-0.786c0.464-0.284,1.015-0.546,1.651-0.786
		c0.637-0.239,1.419-0.359,2.347-0.359c1.393,0,2.452,0.431,3.179,1.291c0.726,0.861,1.089,2.146,1.089,3.853v1.685
		c-2.486,0.061-4.582,0.288-6.289,0.686c-1.707,0.396-3.092,0.908-4.155,1.538c-1.064,0.629-1.831,1.344-2.303,2.145
		c-0.471,0.802-0.707,1.636-0.707,2.505c0,0.988,0.161,1.845,0.483,2.571s0.763,1.333,1.325,1.819
		c0.562,0.487,1.213,0.847,1.954,1.078c0.741,0.232,1.539,0.349,2.392,0.349c0.824,0,1.58-0.071,2.269-0.213
		c0.688-0.143,1.332-0.356,1.931-0.641c0.599-0.285,1.172-0.633,1.719-1.045c0.546-0.412,1.104-0.879,1.673-1.404l0.494,2.045
		c0.075,0.375,0.217,0.621,0.427,0.74c0.209,0.121,0.509,0.181,0.898,0.181H278.514z M251.162,412.784
		c0.913-0.344,1.707-0.831,2.381-1.459l-1.168-1.887c-0.075-0.135-0.154-0.232-0.236-0.292s-0.191-0.09-0.325-0.09
		c-0.12,0-0.251,0.053-0.393,0.157c-0.143,0.104-0.311,0.225-0.506,0.359c-0.195,0.134-0.43,0.254-0.707,0.359
		c-0.278,0.104-0.611,0.157-1,0.157c-0.659,0-1.194-0.225-1.606-0.675c-0.412-0.448-0.617-1.123-0.617-2.021v-13.117h6.042v-2.875
		h-6.042v-7.524h-2.022c-0.24,0-0.438,0.067-0.595,0.201c-0.157,0.136-0.251,0.315-0.281,0.539l-0.921,6.762l-3.459,0.448v1.573
		c0,0.284,0.079,0.502,0.236,0.651c0.157,0.149,0.348,0.225,0.573,0.225h2.515v13.386c0,1.813,0.457,3.205,1.371,4.179
		c0.913,0.974,2.215,1.46,3.908,1.46C249.298,413.301,250.249,413.129,251.162,412.784 M212.063,390.997v13.994
		c0,1.243,0.157,2.377,0.472,3.402c0.314,1.026,0.778,1.902,1.392,2.628c0.614,0.727,1.374,1.288,2.28,1.685
		c0.906,0.396,1.958,0.596,3.156,0.596c1.527,0,2.871-0.318,4.032-0.955c1.16-0.636,2.212-1.479,3.155-2.526l0.36,2.336
		c0.03,0.284,0.135,0.49,0.314,0.617c0.18,0.128,0.405,0.191,0.674,0.191h2.381v-21.968h-3.953v16.195
		c-0.824,0.928-1.718,1.658-2.684,2.19c-0.966,0.53-2.01,0.797-3.134,0.797c-1.512,0-2.639-0.453-3.38-1.359
		c-0.741-0.906-1.112-2.182-1.112-3.829v-13.994H212.063z M194.83,394.232c0.681,0.299,1.258,0.775,1.729,1.426
		c0.472,0.651,0.831,1.486,1.078,2.504c0.247,1.02,0.371,2.239,0.371,3.662c0,2.695-0.543,4.77-1.628,6.222
		c-1.086,1.452-2.632,2.179-4.639,2.179c-1.018,0-1.942-0.191-2.774-0.573c-0.831-0.382-1.591-1.044-2.279-1.988v-10.601
		c0.778-1.048,1.635-1.857,2.571-2.426c0.936-0.569,2.018-0.854,3.246-0.854C193.373,393.783,194.147,393.932,194.83,394.232
		 M186.688,420.376v-9.658c0.733,0.809,1.572,1.438,2.515,1.887c0.944,0.449,2.081,0.674,3.414,0.674
		c1.468,0,2.786-0.292,3.954-0.876c1.167-0.584,2.159-1.389,2.976-2.415c0.816-1.024,1.441-2.237,1.875-3.639
		c0.434-1.4,0.651-2.908,0.651-4.525c0-1.827-0.194-3.437-0.584-4.83c-0.389-1.392-0.943-2.56-1.662-3.503
		c-0.718-0.943-1.587-1.659-2.605-2.145c-1.019-0.487-2.156-0.73-3.414-0.73c-1.558,0-2.935,0.345-4.133,1.033
		c-1.198,0.689-2.261,1.594-3.189,2.718l-0.382-2.561c-0.03-0.284-0.135-0.49-0.315-0.618c-0.179-0.127-0.412-0.191-0.696-0.191
		h-2.358v29.38H186.688z M144.556,412.964v-16.352c0.689-0.884,1.453-1.576,2.291-2.078c0.839-0.502,1.737-0.752,2.696-0.752
		c1.407,0,2.474,0.427,3.2,1.28c0.727,0.853,1.09,2.156,1.09,3.908v13.993h3.953v-13.993c0-0.854,0.131-1.603,0.393-2.246
		c0.262-0.645,0.614-1.188,1.056-1.629c0.441-0.441,0.954-0.771,1.538-0.988s1.205-0.325,1.864-0.325
		c1.453,0,2.568,0.438,3.347,1.313c0.779,0.876,1.168,2.168,1.168,3.875v13.993h3.953v-13.993c0-2.665-0.655-4.717-1.965-6.154
		c-1.311-1.438-3.164-2.157-5.559-2.157c-0.749,0-1.483,0.087-2.201,0.26c-0.719,0.172-1.393,0.444-2.022,0.819
		c-0.629,0.374-1.202,0.847-1.718,1.415c-0.517,0.569-0.932,1.257-1.247,2.066c-0.404-1.394-1.082-2.501-2.032-3.324
		c-0.952-0.824-2.183-1.236-3.695-1.236c-0.674,0-1.311,0.083-1.909,0.248c-0.6,0.164-1.161,0.4-1.685,0.707
		c-0.524,0.308-1.015,0.667-1.471,1.078c-0.457,0.412-0.895,0.865-1.314,1.359l-0.337-2.246c-0.03-0.284-0.131-0.49-0.303-0.618
		c-0.173-0.127-0.408-0.191-0.708-0.191h-2.336v21.968H144.556z M116.855,409.651c-0.801-0.367-1.467-0.902-1.999-1.605
		c-0.532-0.703-0.928-1.564-1.19-2.583c-0.262-1.019-0.393-2.179-0.393-3.481s0.131-2.463,0.393-3.482
		c0.262-1.018,0.658-1.879,1.19-2.583c0.532-0.702,1.198-1.241,1.999-1.616c0.801-0.374,1.741-0.562,2.819-0.562
		c1.063,0,1.991,0.188,2.785,0.562c0.794,0.375,1.456,0.914,1.988,1.616c0.531,0.704,0.928,1.565,1.19,2.583
		c0.262,1.02,0.393,2.18,0.393,3.482s-0.131,2.463-0.393,3.481s-0.659,1.88-1.19,2.583c-0.532,0.703-1.194,1.238-1.988,1.605
		c-0.794,0.367-1.722,0.55-2.785,0.55C118.597,410.201,117.657,410.018,116.855,409.651 M115.329,391.458
		c-1.296,0.532-2.396,1.288-3.302,2.269c-0.906,0.98-1.602,2.168-2.089,3.56c-0.487,1.394-0.73,2.951-0.73,4.672
		c0,1.738,0.243,3.303,0.73,4.695c0.487,1.393,1.183,2.579,2.089,3.561c0.906,0.98,2.006,1.736,3.302,2.268
		c1.295,0.532,2.744,0.798,4.346,0.798s3.047-0.266,4.335-0.798c1.288-0.531,2.381-1.287,3.279-2.268
		c0.899-0.981,1.591-2.168,2.078-3.561c0.486-1.393,0.73-2.957,0.73-4.695c0-1.721-0.244-3.278-0.73-4.672
		c-0.487-1.392-1.179-2.579-2.078-3.56c-0.898-0.98-1.991-1.736-3.279-2.269c-1.288-0.531-2.733-0.798-4.335-0.798
		S116.624,390.926,115.329,391.458 M101.24,393.513c-0.869-0.898-1.864-1.599-2.987-2.101c-1.123-0.502-2.434-0.753-3.931-0.753
		c-1.587,0-2.991,0.281-4.211,0.844c-1.221,0.561-2.246,1.344-3.078,2.347c-0.831,1.003-1.463,2.198-1.897,3.582
		c-0.435,1.386-0.652,2.894-0.652,4.525c0,1.798,0.236,3.396,0.708,4.797c0.471,1.399,1.123,2.583,1.954,3.549
		c0.831,0.965,1.808,1.703,2.931,2.212s2.328,0.764,3.616,0.764c0.749,0,1.486-0.067,2.213-0.203c0.726-0.134,1.426-0.34,2.1-0.616
		c0.673-0.277,1.302-0.63,1.886-1.057s1.116-0.932,1.595-1.516l-1.145-1.438c-0.18-0.255-0.42-0.382-0.719-0.382
		c-0.27,0-0.528,0.112-0.775,0.337s-0.558,0.472-0.932,0.741c-0.375,0.269-0.839,0.516-1.393,0.741
		c-0.554,0.225-1.265,0.337-2.134,0.337c-0.898,0-1.707-0.184-2.425-0.55c-0.719-0.367-1.333-0.902-1.842-1.606
		c-0.509-0.704-0.902-1.569-1.179-2.595c-0.278-1.025-0.416-2.197-0.416-3.516c0-1.271,0.131-2.418,0.393-3.436
		c0.262-1.018,0.644-1.883,1.146-2.594c0.501-0.711,1.13-1.258,1.886-1.641c0.756-0.382,1.629-0.572,2.617-0.572
		c0.749,0,1.381,0.09,1.898,0.27c0.517,0.179,0.955,0.378,1.314,0.595c0.359,0.218,0.659,0.415,0.898,0.596
		c0.24,0.18,0.472,0.27,0.697,0.27c0.209,0,0.37-0.041,0.483-0.124c0.112-0.082,0.228-0.206,0.348-0.37L101.24,393.513z"/>
	<path clip-path="url(#SVGID_2_)" fill="#6D767A" d="M241.122,200.828c-1.906,3.552-3.501,7.308-4.625,11.373
		c-1.307,4.728-1.96,9.65-1.96,14.766c0,5.117,0.653,10.024,1.96,14.723c1.124,4.043,2.719,7.8,4.625,11.368V200.828z
		 M344.065,226.967c0-7.73-1.432-14.918-4.296-21.564c-2.865-6.645-6.757-12.43-11.679-17.351
		c-4.921-4.922-10.706-8.787-17.352-11.596c-6.646-2.807-13.75-4.212-21.313-4.212c-5.117,0-10.025,0.64-14.724,1.918
		c-4.7,1.28-9.079,3.087-13.138,5.423c-1.428,0.821-2.751,1.779-4.086,2.721h23.288c3.52,0,6.84,0.67,9.96,2.01
		c3.12,1.341,5.85,3.18,8.19,5.52c2.34,2.34,4.189,5.08,5.55,8.22c1.359,3.141,2.04,6.51,2.04,10.11c0,3-0.471,5.79-1.41,8.37
		c-0.94,2.58-2.271,4.89-3.99,6.93c2.88,2.64,5.16,5.781,6.84,9.42c1.681,3.64,2.521,7.5,2.521,11.58c0,3.64-0.7,7.09-2.101,10.35
		c-1.399,3.261-3.29,6.12-5.67,8.58s-5.16,4.41-8.34,5.85s-6.53,2.16-10.05,2.16H257.12c1.443,1.043,2.891,2.08,4.445,2.984
		c4.059,2.365,8.438,4.186,13.138,5.464c4.699,1.279,9.607,1.919,14.724,1.919c5.06,0,9.912-0.64,14.556-1.919
		c4.644-1.278,8.995-3.099,13.055-5.464c4.06-2.363,7.744-5.199,11.054-8.508c3.308-3.309,6.145-6.993,8.509-11.053
		c2.363-4.059,4.198-8.439,5.506-13.139C343.411,236.991,344.065,232.084,344.065,226.967 M261.507,217.406h12.695
		c1.363,0,2.617-0.21,3.76-0.63c1.143-0.42,2.115-1.02,2.918-1.8c0.802-0.78,1.434-1.7,1.896-2.76
		c0.461-1.059,0.691-2.229,0.691-3.51c0-1.2-0.221-2.319-0.661-3.36c-0.442-1.04-1.064-1.959-1.866-2.76
		c-0.803-0.8-1.764-1.43-2.888-1.89c-1.123-0.459-2.346-0.69-3.669-0.69h-12.876V217.406z M277.385,233.546h-15.878v20.04h15.878
		c1.323,0,2.545-0.279,3.668-0.84c1.123-0.56,2.106-1.31,2.948-2.25c0.842-0.939,1.493-2.01,1.955-3.21
		c0.461-1.2,0.691-2.439,0.691-3.72c0-1.2-0.23-2.4-0.691-3.6c-0.462-1.2-1.104-2.27-1.925-3.21c-0.822-0.939-1.805-1.71-2.948-2.31
		C279.94,233.846,278.708,233.546,277.385,233.546"/>
	<path clip-path="url(#SVGID_2_)" fill="#0069B4" d="M216.167,286.697c-6.615,3.147-14.455,4.72-23.52,4.72
		c-8.32,0-16.16-1.68-23.52-5.04c-7.36-3.36-13.787-7.92-19.28-13.68c-5.495-5.76-9.84-12.533-13.04-20.32
		c-3.2-7.785-4.8-16.105-4.8-24.96c0-8.64,1.6-16.88,4.8-24.72c3.2-7.84,7.572-14.72,13.12-20.64
		c5.545-5.92,11.972-10.613,19.28-14.08c7.305-3.465,15.12-5.2,23.44-5.2c7.68,0,15.145,1.44,22.4,4.32
		c7.252,2.88,13.6,6.615,19.04,11.2c2.24,1.815,4.265,2.72,6.08,2.72c2.56,0,4.905-1.6,7.04-4.8l13.12-20
		c0.532-0.745,1.167-1.823,1.507-2.957c0.284-1.021,0.268-0.965,0.227-1.758c-0.113-2.211-1.508-4.322-2.948-5.442
		c-1.587-1.361-1.701-1.531-3.855-3.175l-0.371-0.268c-8.215-6.185-17.6-11.092-28.16-14.72c-10.56-3.625-21.76-5.44-33.6-5.44
		c-9.495,0-18.695,1.255-27.6,3.76c-8.908,2.508-17.228,6.027-24.96,10.56c-7.735,4.535-14.8,9.975-21.2,16.32
		c-6.4,6.347-11.92,13.415-16.56,21.2c-4.64,7.788-8.215,16.16-10.72,25.12c-2.507,8.96-3.76,18.295-3.76,28
		c0,9.707,1.253,19.04,3.76,28c2.505,8.96,6.08,17.335,10.72,25.12c4.64,7.788,10.16,14.855,16.56,21.2
		c6.4,6.349,13.465,11.788,21.2,16.32c7.732,4.535,16.052,8.055,24.96,10.56c8.905,2.505,18.105,3.761,27.6,3.761
		c12.585,0,24.132-2.028,34.64-6.08c10.505-4.054,20.292-9.386,29.36-16c1.92-1.386,3.465-2.745,4.64-4.08
		c1.173-1.332,1.76-2.854,1.76-4.561c0-0.64-0.16-1.359-0.48-2.16c-0.32-0.8-0.748-1.572-1.28-2.319l-11.412-16.263l-3.401-5.159
		c-1.28-1.813-3.517-3.294-5.329-3.402c-0.855,0-1.588,0-2.921,0.416c-1.331,0.491-2.645,1.475-4.457,2.648
		C228.808,279.792,222.78,283.552,216.167,286.697"/>
</g>
</svg>
